<?xml version="1.0" encoding="utf-8"?>
<!-- Generator: Adobe Illustrator 16.0.0, SVG Export Plug-In . SVG Version: 6.00 Build 0)  -->
<!DOCTYPE svg PUBLIC "-//W3C//DTD SVG 1.1//EN" "http://www.w3.org/Graphics/SVG/1.1/DTD/svg11.dtd">
<svg version="1.1" id="Layer_1" xmlns="http://www.w3.org/2000/svg" xmlns:xlink="http://www.w3.org/1999/xlink" x="0px" y="0px"
	 width="298.85px" height="341.097px" viewBox="0 0 298.85 341.097" enable-background="new 0 0 298.85 341.097"
	 xml:space="preserve">
<path fill="#00AEEF" d="M249.429,225.619V96.995h49.421V29.156h-49.421V0.208L181.61,0v120.578l-4.892-2.128l-4.899-2.132
	c-15.307-5.53-30.972-8.285-46.984-8.285c-16.173,0-31.904,2.754-47.215,8.285c-14.89,5.534-28.28,13.691-40.2,24.455
	c-11.759,10.64-20.911,23.039-27.424,37.215C3.328,192.314,0,207.701,0,224.133c0,16.879,3.249,32.325,9.777,46.367
	c6.525,14.026,15.742,26.505,27.644,37.431c12.048,10.913,25.453,19.065,40.2,24.453c14.883,5.814,30.623,8.713,47.215,8.713
	c21.678,0,42.172-5.101,61.45-15.311c19.273-10.06,34.588-23.95,45.927-41.679C243.563,266.67,249.298,247.182,249.429,225.619z
	 M175.956,154.474c5.222-5.222,13.673-5.222,18.878,0c5.206,5.187,5.206,13.65-0.012,18.856c-5.193,5.184-13.658,5.208-18.854-0.005
	C170.739,168.115,170.739,159.692,175.956,154.474z M124.729,125.407c7.36,0,13.34,5.983,13.34,13.345
	c0,7.382-5.98,13.348-13.34,13.348c-7.391,0-13.353-5.965-13.353-13.348C111.376,131.391,117.338,125.407,124.729,125.407z
	 M54.611,154.453c5.208-5.217,13.649-5.217,18.858,0.004c5.21,5.212,5.224,13.659,0.015,18.868c-5.224,5.213-13.666,5.206-18.874,0
	C49.392,168.115,49.392,159.661,54.611,154.453z M38.911,237.902c-7.388,0.008-13.354-5.973-13.354-13.351
	c0-7.361,5.993-13.326,13.354-13.326c7.355,0,13.336,5.965,13.336,13.334C52.247,231.93,46.282,237.902,38.911,237.902z
	 M73.469,294.684c-5.219,5.214-13.65,5.205-18.884-0.022c-5.193-5.19-5.193-13.659,0.026-18.849c5.197-5.207,13.649-5.222,18.858,0
	C78.679,281.018,78.679,289.447,73.469,294.684z M124.703,323.736c-7.365-0.008-13.342-5.987-13.327-13.359
	c0-7.354,5.962-13.335,13.327-13.335c7.386,0,13.351,5.961,13.351,13.344C138.054,317.764,132.089,323.729,124.703,323.736z
	 M124.835,279.651c-15.458,0-28.797-5.469-39.981-16.386c-11.344-10.909-17.022-23.959-17.022-39.133
	c0-9.916,2.623-18.986,7.873-27.222c5.248-8.354,12.256-15.016,21.05-19.99c8.785-4.949,18.142-7.437,28.08-7.437
	c9.915,0,19.198,2.488,27.851,7.437c8.784,4.975,15.808,11.637,21.053,19.99c5.25,8.235,7.871,17.306,7.871,27.222
	c0,15.174-5.673,28.224-17.023,39.133C153.391,274.183,140.142,279.651,124.835,279.651z M194.822,294.684
	c-5.193,5.214-13.667,5.214-18.866-0.008c-5.193-5.205-5.217-13.65,0-18.849c5.208-5.229,13.645-5.229,18.866,0
	C200.04,281.042,200.04,289.471,194.822,294.684z M210.519,237.902c-7.346,0-13.334-5.965-13.324-13.327
	c-0.01-7.377,5.939-13.336,13.324-13.336c7.38,0,13.34,5.965,13.34,13.336C223.873,231.938,217.898,237.926,210.519,237.902z"/>
</svg>
