<?xml version="1.0" encoding="utf-8"?>
<!-- Generator: Adobe Illustrator 16.0.0, SVG Export Plug-In . SVG Version: 6.00 Build 0)  -->
<!DOCTYPE svg PUBLIC "-//W3C//DTD SVG 1.1//EN" "http://www.w3.org/Graphics/SVG/1.1/DTD/svg11.dtd">
<svg version="1.1" id="Layer_1" xmlns="http://www.w3.org/2000/svg" xmlns:xlink="http://www.w3.org/1999/xlink" x="0px" y="0px"
	 width="440.932px" height="348.55px" viewBox="0 0 440.932 348.55" enable-background="new 0 0 440.932 348.55"
	 xml:space="preserve">
<g>
	<path fill="#00AEEF" d="M293.104,131.396V56.488h28.782V16.98h-28.782V0.121L253.607,0v70.222l-2.849-1.239l-2.854-1.242
		c-8.914-3.221-18.037-4.825-27.362-4.825c-9.419,0-18.58,1.604-27.497,4.825c-8.671,3.223-16.47,7.974-23.412,14.242
		c-6.849,6.196-12.178,13.417-15.971,21.674c-3.884,8.343-5.822,17.304-5.822,26.874c0,9.83,1.892,18.826,5.694,27.003
		c3.8,8.168,9.168,15.436,16.099,21.799c7.017,6.355,14.823,11.104,23.412,14.241c8.668,3.386,17.834,5.074,27.497,5.074
		c12.625,0,24.561-2.971,35.787-8.917c11.225-5.858,20.144-13.948,26.747-24.273C289.688,155.304,293.027,143.954,293.104,131.396z
		 M250.314,89.962c3.041-3.041,7.963-3.041,10.994,0c3.032,3.021,3.032,7.95-0.007,10.981c-3.024,3.019-7.954,3.033-10.979-0.003
		C247.276,97.907,247.276,93.001,250.314,89.962z M220.481,73.035c4.287,0,7.769,3.485,7.769,7.772c0,4.299-3.482,7.773-7.769,7.773
		c-4.304,0-7.776-3.474-7.776-7.773C212.705,76.52,216.177,73.035,220.481,73.035z M179.646,89.95
		c3.033-3.038,7.949-3.038,10.983,0.002c3.034,3.035,3.042,7.955,0.009,10.988c-3.042,3.036-7.958,3.032-10.992,0
		C176.606,97.907,176.606,92.983,179.646,89.95z M170.502,138.55c-4.303,0.004-7.777-3.479-7.777-7.775
		c0-4.287,3.49-7.761,7.777-7.761c4.284,0,7.767,3.474,7.767,7.766C178.269,135.071,174.795,138.55,170.502,138.55z
		 M190.628,171.618c-3.04,3.037-7.95,3.031-10.998-0.013c-3.024-3.023-3.024-7.955,0.015-10.977c3.027-3.032,7.949-3.041,10.983,0
		C193.663,163.659,193.663,168.568,190.628,171.618z M220.466,188.538c-4.289-0.005-7.77-3.487-7.761-7.78
		c0-4.283,3.472-7.766,7.761-7.766c4.302,0,7.775,3.471,7.775,7.771C228.241,185.06,224.768,188.533,220.466,188.538z
		 M220.543,162.864c-9.002,0-16.771-3.185-23.284-9.543c-6.606-6.354-9.913-13.953-9.913-22.79c0-5.775,1.527-11.057,4.585-15.854
		c3.056-4.865,7.138-8.745,12.259-11.642c5.116-2.882,10.565-4.331,16.353-4.331c5.774,0,11.181,1.449,16.22,4.331
		c5.116,2.897,9.206,6.777,12.261,11.642c3.058,4.796,4.584,10.079,4.584,15.854c0,8.837-3.304,16.437-9.914,22.79
		C237.173,159.679,229.457,162.864,220.543,162.864z M261.302,171.618c-3.024,3.037-7.959,3.037-10.987-0.004
		c-3.024-3.032-3.038-7.95,0-10.977c3.033-3.045,7.946-3.045,10.987,0C264.341,163.673,264.341,168.582,261.302,171.618z
		 M270.443,138.55c-4.278,0-7.766-3.474-7.76-7.761c-0.006-4.296,3.459-7.767,7.76-7.767c4.298,0,7.769,3.474,7.769,7.767
		C278.221,135.076,274.741,138.563,270.443,138.55z"/>
	<path fill="#00AEEF" d="M64.042,230.291l-1.727-0.749l-1.725-0.748c-5.397-1.95-10.923-2.923-16.57-2.923
		c-5.703,0-11.252,0.973-16.648,2.923c-5.244,1.951-9.975,4.831-14.17,8.625c-4.15,3.748-7.381,8.124-9.676,13.12
		C1.179,255.589,0,261.015,0,266.812c0,5.954,1.148,11.397,3.451,16.346c2.303,4.953,5.551,9.35,9.752,13.2
		c4.25,3.85,8.97,6.73,14.17,8.624c5.251,2.048,10.793,3.075,16.648,3.075c7.645,0,14.869-1.797,21.67-5.395
		c6.795-3.553,12.203-8.452,16.198-14.705c3.999-6.147,6.03-13.022,6.075-20.616v-68.622l-23.923-0.07V230.291z M58.044,280.611
		c-3.953,3.85-8.626,5.774-14.022,5.774c-5.451,0-10.15-1.925-14.103-5.774c-3.998-3.852-5.999-8.45-5.999-13.8
		c0-3.501,0.93-6.703,2.777-9.595c1.847-2.955,4.325-5.3,7.425-7.054c3.095-1.75,6.394-2.62,9.899-2.62
		c3.497,0,6.772,0.87,9.821,2.62c3.099,1.754,5.577,4.099,7.425,7.054c1.849,2.892,2.775,6.094,2.775,9.595
		C64.042,272.161,62.043,276.76,58.044,280.611z"/>
	<path fill="#00AEEF" d="M166.404,237.34c-4.008-3.697-8.704-6.542-14.102-8.546c-5.404-1.999-10.945-3.002-16.646-3.002
		c-5.747,0-11.294,1.024-16.648,3.078c-5.35,1.946-10.047,4.772-14.101,8.47c-4.096,3.705-7.319,8.049-9.667,13.046
		c-2.357,5.05-3.526,10.507-3.526,16.352c0,7.754,2.03,14.774,6.074,21.071c3.998,6.199,9.402,11.1,16.197,14.696
		c6.797,3.548,14.018,5.324,21.672,5.324c5.8,0,11.35-1.019,16.646-3.072c0.747-0.253,1.924-0.72,3.521-1.425v2.252l23.777,0.225
		l0.069-39.071c0-5.845-1.17-11.302-3.521-16.352C173.848,245.49,170.6,241.146,166.404,237.34z M149.748,280.462
		c-3.944,3.798-8.641,5.701-14.092,5.701c-5.396,0-10.081-1.903-14.024-5.701c-3.999-3.854-5.999-8.427-5.999-13.725
		c0-3.498,0.921-6.726,2.776-9.674c1.847-2.945,4.325-5.298,7.426-7.049c3.094-1.698,6.37-2.551,9.821-2.551
		c3.55,0,6.848,0.853,9.896,2.551c3.103,1.751,5.581,4.104,7.428,7.049c1.847,2.948,2.773,6.176,2.773,9.674
		C155.753,272.035,153.755,276.608,149.748,280.462z"/>
	<path fill="#00AEEF" d="M258.19,237.419c-4.247-3.852-8.977-6.726-14.175-8.625c-5.247-2.053-10.801-3.075-16.647-3.075
		c-7.648,0-14.877,1.803-21.672,5.399c-6.803,3.548-12.2,8.447-16.2,14.699c-3.998,6.1-6.021,12.969-6.074,20.622v68.613
		l23.923,0.078v-31.647l1.727,0.75l1.727,0.748c5.396,1.951,10.922,2.928,16.569,2.928c5.747,0,11.293-0.977,16.647-2.928
		c5.298-1.952,10.025-4.821,14.175-8.624c4.143-3.75,7.367-8.121,9.67-13.118c2.349-5.052,3.518-10.474,3.518-16.274
		c0-5.95-1.146-11.402-3.44-16.347C265.633,245.665,262.387,241.268,258.19,237.419z M244.691,276.563
		c-1.855,2.949-4.324,5.298-7.427,7.049c-3.103,1.75-6.4,2.62-9.896,2.62c-3.498,0-6.772-0.87-9.821-2.62
		c-3.103-1.751-5.58-4.1-7.428-7.049c-1.847-2.852-2.773-6.055-2.773-9.599c0-5.352,1.998-9.949,5.997-13.806
		c3.952-3.845,8.63-5.767,14.025-5.767c5.441,0,10.146,1.922,14.093,5.767c4.008,3.904,6.005,8.507,6.005,13.806
		C247.466,270.464,246.538,273.664,244.691,276.563z"/>
	<path fill="#00AEEF" d="M349.896,237.419c-4.25-3.852-8.977-6.726-14.169-8.625c-5.244-2.053-10.803-3.075-16.657-3.075
		c-7.646,0-14.873,1.803-21.67,5.399c-6.787,3.548-12.195,8.447-16.192,14.699c-3.996,6.1-6.028,12.969-6.072,20.622v68.613
		l23.92,0.078v-31.647l1.729,0.75l1.716,0.748c5.404,1.951,10.925,2.928,16.57,2.928c5.748,0,11.306-0.977,16.657-2.928
		c5.298-1.952,10.01-4.821,14.169-8.624c4.142-3.75,7.373-8.121,9.669-13.118c2.349-5.052,3.526-10.474,3.526-16.274
		c0-5.95-1.147-11.402-3.45-16.347C357.345,245.665,354.092,241.268,349.896,237.419z M336.402,276.563
		c-1.854,2.949-4.322,5.298-7.426,7.049c-3.102,1.75-6.399,2.62-9.906,2.62c-3.494,0-6.771-0.87-9.813-2.62
		c-3.105-1.751-5.58-4.1-7.425-7.049c-1.856-2.852-2.776-6.055-2.776-9.599c0-5.352,1.993-9.949,6.008-13.806
		c3.937-3.845,8.609-5.767,14.007-5.767c5.461,0,10.149,1.922,14.101,5.767c3.997,3.904,6.008,8.507,6.008,13.806
		C339.179,270.464,338.25,273.664,336.402,276.563z"/>
	<path fill="#00AEEF" d="M416.932,228.938v43.049c0,4.499-1.048,7.928-3.147,10.273c-2.202,2.35-5.12,3.526-8.772,3.526
		c-3.798,0-6.75-1.155-8.844-3.457c-2.108-2.345-3.149-5.792-3.149-10.343V228.87h-24v44.766c0,25.05,11.822,36.319,35.469,33.821
		c3.84-0.354,8.05-1.447,12.599-3.298v10.271h-0.075v0.754c-0.048,0.148-0.079,0.271-0.079,0.372
		c-0.055,0.699-0.174,1.272-0.371,1.723l-0.144,0.525l-0.164,0.526l-0.139,0.371l-0.078,0.228c-1.147,2.748-2.875,4.9-5.171,6.446
		c-2.453,1.699-5.152,2.549-8.104,2.549c-3.8,0-7.078-1.295-9.83-3.898c-2.741-2.595-4.214-5.796-4.418-9.596l-21.675,12.673
		c1.012,3.399,3.604,7.248,7.8,11.545c6.454,6.406,15.027,9.705,25.723,9.901h3.967c4.814,0,9.58-0.853,14.328-2.55
		c5.252-1.899,9.374-4.35,12.368-7.352c6.613-6.693,9.907-14.691,9.907-23.99V228.87L416.932,228.938z"/>
</g>
</svg>
